# xmcd
#
# Track frame offsets:
#	150
#	10575
#	26078
#	38873
#	52583
#	64853
#	78983
#	91418
#	101633
#	113108
#	125566
#
# Disc length: 1847 seconds
#
# Revision: 0
# Processed by: cddbd v1.5.2PL0 Copyright (c) Steve Scherf et al.
# Submitted via: audiograbber 1.83.01
#
DISCID=8107350b
DTITLE=Don Williams - The Best Of Vol II
DYEAR=1979
DGENRE=Country
TTITLE0=(Turn Out The Light And) Love Me Tonight
TTITLE1='Till All The Rivers Run Dry
TTITLE2=Rake And Ramblin' Man
TTITLE3=I'm Just A Country Boy
TTITLE4=Some Broken Hearts Never Mend
TTITLE5=Tulsa Time
TTITLE6=She Never Knew Me
TTITLE7=Falling In Love
TTITLE8=I've Got A Winner In You
TTITLE9=You're My Best Friend
TTITLE10=Say It Again
EXTD=This CD was made from one of my LP's
EXTT0=
EXTT1=
EXTT2=
EXTT3=
EXTT4=
EXTT5=
EXTT6=
EXTT7=
EXTT8=
EXTT9=
EXTT10=
PLAYORDER=
